# Blender 5.1.0
# www.blender.org
mtllib box_stack.mtl
o Circle.001
v -1.080454 -0.000000 0.044461
v -0.580454 0.866025 0.044461
v 0.419546 0.866025 0.044461
v 0.919546 0.000000 0.044461
v 0.419546 -0.866025 0.044461
v -0.580454 -0.866025 0.044461
v -0.080454 -0.000000 0.044461
v -0.580454 -0.000000 0.044461
v -0.330454 -0.433013 0.044461
v 0.169546 -0.433013 0.044461
v 0.419546 0.000000 0.044461
v 0.169546 0.433013 0.044461
v -0.330454 0.433013 0.044461
l 2 1
l 3 2
l 4 3
l 5 4
l 6 5
l 1 6
l 10 5
l 11 4
l 3 12
l 1 8
l 9 6
l 2 13
l 8 9
l 10 9
l 11 10
l 12 11
l 12 13
l 8 13
l 12 7
l 9 7
l 7 8
l 10 7
l 11 7
l 13 7
l 3 13
l 2 12
l 1 13
l 2 8
l 6 8
l 1 9
l 5 9
l 6 10
l 4 10
l 5 11
l 4 12
l 3 11
